<svg xmlns="http://www.w3.org/2000/svg" viewBox="0 0 420 120" fill="none" role="img" aria-label="Aion Pharma">
  <defs>
    <linearGradient id="waveH" x1="48" y1="38" x2="92" y2="88" gradientUnits="userSpaceOnUse">
      <stop stop-color="#00AEEF"/>
      <stop offset="1" stop-color="#0054A6"/>
    </linearGradient>
  </defs>
  <!-- Mark -->
  <g transform="translate(8,6)">
    <path d="M70 4L8 108h28l12.5-21h43L104 108h28L70 4Z" fill="#051231"/>
    <path d="M70 38c-7.5 11-13.5 22-16.5 31 6-4.5 13.5-7.5 21-7.5s15 3 21 7.5c-3-9-9-20-16.5-31-3-4-6-4-9 0Z" fill="url(#waveH)"/>
    <path d="M45.5 86.5h49L70 44.5 45.5 86.5Z" fill="#051231"/>
  </g>
  <!-- Wordmark -->
  <text x="160" y="68" font-family="Arial Black, Arial, Helvetica, sans-serif" font-size="42" font-weight="900" letter-spacing="1.5" fill="#051231">AION</text>
  <text x="162" y="96" font-family="Arial, Helvetica, sans-serif" font-size="15" font-weight="500" letter-spacing="9.5" fill="#4A6B8A">PHARMA</text>
</svg>
